<svg xmlns="http://www.w3.org/2000/svg" viewBox="0 0 160 160" role="img" aria-labelledby="title desc">
  <title id="title">FSTS Driver Logo</title>
  <desc id="desc">Stylised FD monogram inside a shield.</desc>
  <defs>
    <linearGradient id="bg" x1="0" y1="0" x2="1" y2="1">
      <stop offset="0%" stop-color="#23335a" />
      <stop offset="100%" stop-color="#10172a" />
    </linearGradient>
    <linearGradient id="accent" x1="0" y1="0" x2="1" y2="1">
      <stop offset="0%" stop-color="#ffde73" />
      <stop offset="100%" stop-color="#f0a500" />
    </linearGradient>
  </defs>
  <g fill="none" fill-rule="evenodd">
    <path d="M80 8c39.764 0 72 13.346 72 29.802v53.437c0 19.983-14.596 38.63-38.625 50.67L80 152l-33.375-10.09C22.596 129.87 8 111.222 8 91.239V37.802C8 21.346 40.236 8 80 8z" fill="url(#bg)"/>
    <path d="M54 46h45c12.15 0 22 9.85 22 22 0 11.542-8.786 21.078-20.029 21.942l17.42 24.437A4 4 0 01116 120H98a4 4 0 01-3.276-1.69L72.7 86H66v30a4 4 0 01-4 4H46a4 4 0 01-4-4V50a4 4 0 014-4zm30 30c4.418 0 8-3.582 8-8s-3.582-8-8-8h-12v16h12z" fill="url(#accent)" />
  </g>
</svg>
